<svg width="47" height="47" viewBox="0 0 47 47" fill="none" xmlns="http://www.w3.org/2000/svg">
<path fill-rule="evenodd" clip-rule="evenodd" d="M16.5194 14.1853C14.5058 17.207 12.6945 20.2318 11.5822 22.2156L8.78936 19.3157C7.05199 17.4806 7.05199 14.6076 8.78936 12.7725C9.61167 11.9099 10.7503 11.4201 11.942 11.4163H18.4407C17.7923 12.3056 17.1469 13.2335 16.5194 14.1853Z" stroke="white" stroke-width="3.22661" stroke-linecap="round" stroke-linejoin="round"/>
<path fill-rule="evenodd" clip-rule="evenodd" d="M31.9093 29.5769C28.8875 31.5904 25.8627 33.4018 23.8789 34.5141L26.7788 37.3069C28.6139 39.0442 31.487 39.0442 33.3221 37.3069C34.1849 36.4846 34.6745 35.346 34.6784 34.1542V27.6555C33.7891 28.3039 32.8611 28.9493 31.9093 29.5769Z" stroke="white" stroke-width="3.22661" stroke-linecap="round" stroke-linejoin="round"/>
<path d="M10.7056 28.1955C11.5765 27.3244 11.5762 25.9119 10.7049 25.041C9.83359 24.1699 8.42122 24.1702 7.55027 25.0416L10.7056 28.1955ZM0.653016 31.9419C-0.217929 32.813 -0.217633 34.2255 0.65367 35.0964C1.525 35.9675 2.93738 35.9672 3.80832 35.0958L0.653016 31.9419ZM15.8781 33.3734C16.7489 32.5019 16.7483 31.0895 15.8768 30.2186C15.0053 29.348 13.5929 29.3486 12.7221 30.2201L15.8781 33.3734ZM9.27795 33.6672C8.40718 34.5387 8.4078 35.9512 9.27931 36.822C10.1508 37.6926 11.5632 37.692 12.434 36.8205L9.27795 33.6672ZM13.1601 20.6255C12.2879 19.7555 10.8755 19.7573 10.0054 20.6293C9.13533 21.5017 9.13703 22.9139 10.0092 23.7841L13.1601 20.6255ZM17.7473 28.3526L19.3266 26.7771L19.3227 26.7732L17.7473 28.3526ZM22.3157 36.0906C23.186 36.9627 24.5981 36.9645 25.4705 36.0945C26.3425 35.2243 26.3443 33.8121 25.4743 32.9397L22.3157 36.0906ZM16.5917 10.1552C15.9046 11.1778 16.1765 12.5637 17.1991 13.2508C18.2217 13.938 19.6076 13.6661 20.2947 12.6435L16.5917 10.1552ZM23.8504 5.06126L22.4245 3.34578C22.3924 3.37258 22.3609 3.4003 22.33 3.42888L23.8504 5.06126ZM43.5904 2.50936L45.8101 2.2882C45.7048 1.23112 44.8687 0.395005 43.8117 0.289657L43.5904 2.50936ZM41.0385 22.2524L42.6708 23.7728C42.6996 23.7419 42.7276 23.7101 42.7546 23.6776L41.0385 22.2524ZM33.4563 25.8081C32.4337 26.4951 32.1619 27.8811 32.8489 28.9037C33.536 29.9262 34.922 30.1981 35.9445 29.511L33.4563 25.8081ZM21.0582 38.5495C21.9296 37.6786 21.9299 36.2661 21.0588 35.395C20.1879 34.5235 18.7755 34.5232 17.9043 35.3944L21.0582 38.5495ZM11.004 42.2916C10.1327 43.1625 10.1324 44.575 11.0034 45.4461C11.8743 46.3176 13.2867 46.3179 14.158 45.4467L11.004 42.2916ZM37.509 11.7454C38.3801 10.8742 38.3801 9.46184 37.509 8.59071C36.6378 7.71958 35.2257 7.71958 34.3545 8.59071L37.509 11.7454ZM30.6754 12.2698C29.8042 13.141 29.8042 14.5534 30.6754 15.4245C31.5465 16.2956 32.9587 16.2956 33.8299 15.4245L30.6754 12.2698ZM7.55027 25.0416L0.653016 31.9419L3.80832 35.0958L10.7056 28.1955L7.55027 25.0416ZM12.7221 30.2201L9.27795 33.6672L12.434 36.8205L15.8781 33.3734L12.7221 30.2201ZM10.0092 23.7841L16.1718 29.9319L19.3227 26.7732L13.1601 20.6255L10.0092 23.7841ZM16.168 29.928L22.3157 36.0906L25.4743 32.9397L19.3266 26.7771L16.168 29.928ZM20.2947 12.6435C21.7536 10.4726 23.4566 8.47623 25.3708 6.69362L22.33 3.42888C20.1662 5.44411 18.241 7.70099 16.5917 10.1552L20.2947 12.6435ZM25.2762 6.77675C25.8857 6.27009 26.9335 5.78035 28.4435 5.38632C29.9184 5.00148 31.6587 4.75224 33.4938 4.61076C37.1652 4.3277 40.9927 4.49223 43.3691 4.72904L43.8117 0.289657C41.233 0.0327417 37.1372 -0.144732 33.1508 0.162596C31.1569 0.316305 29.1344 0.595349 27.3172 1.0695C25.5353 1.5345 23.7618 2.23442 22.4245 3.34578L25.2762 6.77675ZM41.3707 2.73053C41.6075 5.10716 41.772 8.93453 41.4891 12.6065C41.3475 14.4418 41.0983 16.1822 40.7134 17.6575C40.3193 19.1681 39.8295 20.2168 39.3224 20.8271L42.7546 23.6776C43.8655 22.3398 44.5654 20.566 45.0302 18.7838C45.5043 16.9662 45.7833 14.9435 45.9371 12.9494C46.2446 8.96267 46.0671 4.86666 45.8101 2.2882L41.3707 2.73053ZM39.4062 20.732C37.6235 22.6462 35.6272 24.3492 33.4563 25.8081L35.9445 29.511C38.3989 27.8618 40.6557 25.9366 42.6708 23.7728L39.4062 20.732ZM17.9043 35.3944L11.004 42.2916L14.158 45.4467L21.0582 38.5495L17.9043 35.3944ZM34.3545 8.59071L30.6754 12.2698L33.8299 15.4245L37.509 11.7454L34.3545 8.59071Z" fill="white"/>
</svg>
