<svg width="27" height="27" viewBox="0 0 27 27" fill="none" xmlns="http://www.w3.org/2000/svg">
<path d="M16.3115 24.3377C16.3542 24.444 16.4283 24.5346 16.524 24.5976C16.6196 24.6605 16.7322 24.6926 16.8467 24.6897C16.9611 24.6868 17.072 24.6489 17.1643 24.5812C17.2566 24.5134 17.326 24.4191 17.3631 24.3108L24.6578 2.98792C24.6937 2.88848 24.7005 2.78087 24.6775 2.67768C24.6545 2.57449 24.6026 2.47998 24.5278 2.40522C24.4531 2.33046 24.3586 2.27854 24.2554 2.25553C24.1522 2.23252 24.0446 2.23937 23.9451 2.27529L2.62227 9.56995C2.51397 9.60709 2.41962 9.67647 2.35189 9.76878C2.28415 9.86109 2.24628 9.97191 2.24335 10.0864C2.24042 10.2008 2.27257 10.3134 2.33548 10.4091C2.3984 10.5047 2.48908 10.5789 2.59533 10.6215L11.4948 14.1903C11.7762 14.3029 12.0318 14.4714 12.2462 14.6854C12.4607 14.8995 12.6296 15.1548 12.7428 15.436L16.3115 24.3377Z" stroke="black" stroke-width="2.69341" stroke-linecap="round" stroke-linejoin="round"/>
<path d="M24.5267 2.40918L12.2493 14.6855" stroke="black" stroke-width="2.69341" stroke-linecap="round" stroke-linejoin="round"/>
</svg>
